<?xml version="1.0" standalone="no"?>
<!DOCTYPE svg PUBLIC "-//W3C//DTD SVG 20010904//EN"
 "http://www.w3.org/TR/2001/REC-SVG-20010904/DTD/svg10.dtd">
<svg version="1.0" xmlns="http://www.w3.org/2000/svg"
 width="711.000000pt" height="711.000000pt" viewBox="0 0 711.000000 711.000000"
 preserveAspectRatio="xMidYMid meet">
<metadata>
Created by potrace 1.14, written by Peter Selinger 2001-2017
</metadata>
<g transform="translate(0.000000,711.000000) scale(0.100000,-0.100000)"
fill="#000000" stroke="none">
<path d="M365 5530 c-17 -27 38 -185 98 -285 23 -38 47 -79 52 -90 47 -86 91
-164 107 -187 11 -16 17 -28 14 -28 -9 0 -423 296 -498 356 -67 54 -98 67 -98
39 0 -11 103 -140 140 -175 3 -3 34 -39 70 -80 36 -41 130 -140 210 -221 123
-124 174 -170 290 -262 48 -38 210 -158 240 -177 19 -12 26 -19 15 -15 -37 13
-169 62 -235 87 -36 14 -110 48 -165 76 -101 52 -149 77 -392 210 -133 73
-163 83 -163 59 0 -31 142 -177 230 -237 236 -160 395 -246 612 -331 92 -36
110 -49 56 -43 -49 7 -527 11 -570 6 -55 -6 -50 -33 10 -56 184 -71 463 -146
543 -146 40 0 16 -8 -42 -14 -31 -3 -78 -10 -105 -15 -27 -5 -71 -12 -99 -16
-172 -21 -187 -31 -112 -76 103 -63 195 -86 402 -104 39 -3 86 -9 105 -12 19
-3 77 -6 128 -6 l92 -1 -47 -19 c-119 -48 -253 -129 -253 -152 0 -10 20 -25
48 -37 98 -44 326 -31 504 30 32 11 58 18 58 17 0 -2 -26 -18 -57 -35 -78 -44
-147 -94 -211 -155 -71 -66 -98 -103 -84 -117 26 -26 252 -12 349 21 48 16 53
17 47 2 -11 -27 -17 -98 -10 -125 5 -19 13 -26 32 -26 50 0 111 45 239 174
145 146 209 218 125 140 -237 -219 -284 -257 -333 -269 -26 -7 -27 -6 -27 36
0 79 12 91 230 245 74 53 142 102 150 111 18 17 -175 -100 -280 -170 -95 -63
-143 -85 -229 -101 -80 -15 -241 -21 -241 -9 0 16 103 118 164 162 85 63 235
150 354 206 56 26 100 50 98 52 -2 2 -43 -14 -92 -35 -290 -127 -539 -172
-729 -132 l-60 12 35 30 c75 62 318 162 445 183 22 3 85 19 140 36 89 26 90
29 5 13 -14 -2 -56 -12 -95 -20 -38 -9 -77 -18 -85 -19 -8 -1 -31 -5 -50 -9
-19 -3 -48 -8 -65 -11 -35 -6 -221 -7 -250 -1 -21 4 -85 13 -162 21 -27 3 -59
8 -73 10 -14 3 -47 7 -75 11 -44 6 -175 55 -198 74 -7 7 72 26 148 36 17 3 50
9 75 14 116 24 129 24 574 29 66 0 117 3 114 6 -7 7 -114 14 -331 20 -104 3
-198 7 -210 10 -12 2 -38 7 -57 9 -92 13 -271 60 -370 98 -61 23 -109 42 -108
44 13 12 537 21 570 9 7 -2 29 -6 48 -9 19 -3 84 -15 144 -26 128 -25 152 -21
33 5 -45 10 -84 19 -87 20 -3 1 -21 5 -40 9 -72 16 -275 99 -435 178 -96 48
-404 252 -460 306 -92 87 -80 84 165 -41 283 -145 308 -156 650 -270 140 -47
264 -88 275 -92 18 -6 19 -6 2 5 -10 6 -57 25 -104 41 -116 39 -230 105 -350
203 -10 8 -67 55 -128 104 -134 109 -351 331 -485 497 l-65 80 50 -36 c28 -20
100 -69 160 -110 118 -78 360 -251 541 -384 227 -168 472 -335 490 -335 4 0
-38 30 -92 66 -99 67 -262 188 -475 350 -159 123 -162 125 -185 159 -39 55
-234 427 -234 445 0 11 45 -40 126 -146 21 -28 67 -87 102 -132 113 -148 294
-306 566 -496 120 -84 193 -122 246 -131 19 -3 60 -10 90 -15 30 -5 87 -12
125 -15 39 -4 77 -8 85 -10 8 -2 55 -6 104 -10 49 -3 103 -8 120 -11 17 -2 72
-6 123 -9 51 -3 101 -8 112 -10 11 -2 75 -7 143 -10 68 -4 125 -9 128 -10 3
-2 55 -6 115 -10 173 -11 245 -28 374 -90 124 -60 265 -138 293 -163 16 -13
16 -17 1 -46 -8 -17 -39 -62 -68 -101 -53 -71 -87 -145 -102 -226 -13 -72 -9
-329 6 -374 13 -41 80 -176 190 -385 117 -223 116 -217 72 -276 -80 -110 -250
-255 -373 -319 -41 -21 -51 -41 -15 -30 12 3 38 10 57 14 19 5 48 12 64 16
l30 8 -41 -49 c-57 -69 -62 -92 -58 -251 4 -134 14 -193 34 -193 5 0 29 25 53
56 24 31 50 65 59 77 14 18 15 11 12 -99 -5 -151 3 -165 56 -106 l39 42 -5
-125 c-4 -107 -3 -125 10 -125 8 0 23 12 33 27 35 55 87 158 95 187 7 30 7 30
9 -9 2 -57 8 -92 27 -163 16 -62 33 -78 49 -45 10 22 15 393 5 393 -4 0 -7
-10 -7 -22 -1 -29 -13 -175 -21 -253 l-6 -60 -14 40 c-7 21 -16 62 -19 90 -4
27 -8 53 -10 56 -2 4 3 44 12 90 36 203 27 203 -21 -1 -18 -79 -38 -135 -63
-177 -20 -35 -39 -63 -42 -63 -10 0 -1 179 11 225 5 22 30 101 55 176 24 75
44 140 44 145 -1 9 -6 -3 -96 -219 -27 -65 -61 -133 -76 -150 l-27 -32 -2 50
c-6 176 4 221 97 413 35 73 64 136 64 140 0 4 -48 -79 -106 -184 -92 -167
-181 -299 -201 -299 -7 0 -8 7 -21 115 -18 140 -4 199 60 270 13 14 32 36 43
49 l20 24 -22 -14 c-13 -8 -23 -16 -23 -19 0 -3 -16 -6 -36 -7 l-35 -2 60 37
c91 55 212 179 264 271 l24 43 31 -74 c45 -108 52 -150 57 -346 3 -96 8 -178
11 -181 3 -3 4 89 1 204 -4 191 -7 216 -30 280 -34 98 -100 242 -221 484 -134
266 -140 288 -140 466 1 200 25 284 114 397 53 67 70 108 70 174 0 64 -27 141
-85 239 -95 160 -94 214 7 323 29 31 42 48 28 37 -83 -66 -126 -143 -115 -211
3 -23 35 -99 70 -168 59 -115 85 -189 72 -202 -3 -4 -45 16 -94 44 -185 104
-326 169 -386 177 -53 6 -138 15 -202 20 -93 7 -186 15 -235 20 -25 2 -88 7
-140 10 -52 4 -106 8 -120 10 -14 1 -70 6 -125 9 -55 4 -107 9 -115 11 -8 2
-55 7 -105 10 -49 4 -92 8 -95 10 -3 1 -36 6 -75 10 -83 8 -172 28 -206 45
-67 35 -299 201 -419 299 -154 126 -405 413 -544 623 -51 77 -70 96 -81 78z"/>
<path d="M6777 5442 c-10 -10 -17 -23 -17 -28 0 -5 -87 -96 -192 -201 l-193
-192 -380 -253 c-209 -139 -387 -254 -395 -255 -8 -1 -73 -9 -145 -18 -71 -8
-143 -17 -160 -20 -16 -2 -50 -6 -75 -10 -25 -3 -189 -23 -365 -45 -176 -22
-345 -43 -375 -46 -75 -7 -113 -22 -307 -120 -92 -46 -171 -83 -177 -81 -19 7
-46 -13 -46 -33 0 -34 43 -48 63 -20 19 27 371 200 430 210 29 5 147 21 262
35 116 14 226 28 245 30 19 2 112 14 205 25 196 23 243 29 276 35 13 2 64 9
112 15 l89 11 386 258 387 259 190 190 c104 105 200 193 211 196 29 8 36 41
15 60 -22 20 -24 20 -44 -2z"/>
<path d="M7024 5331 c-5 -11 -313 -222 -684 -469 -661 -441 -676 -450 -735
-457 -100 -11 -128 -15 -165 -20 -19 -3 -55 -8 -80 -10 -25 -3 -56 -7 -70 -10
-14 -3 -59 -8 -100 -11 -41 -4 -78 -8 -81 -10 -3 -2 -34 -6 -70 -9 -35 -4 -75
-9 -89 -11 -14 -2 -68 -9 -120 -15 -52 -5 -102 -12 -110 -14 -8 -2 -44 -7 -80
-10 -36 -3 -72 -8 -80 -10 -8 -2 -39 -7 -69 -10 -41 -5 -102 -31 -243 -101
-103 -52 -196 -94 -207 -94 -28 0 -47 -28 -34 -48 15 -25 40 -26 60 -2 10 12
104 63 208 115 172 84 197 94 265 100 41 4 77 8 80 10 3 2 37 6 75 9 39 4 81
8 95 11 34 6 83 12 155 20 33 4 71 9 85 11 14 2 50 6 80 9 30 3 66 8 80 10 14
3 48 7 75 10 28 4 77 10 110 15 33 5 114 14 180 21 l120 13 675 450 c371 247
686 452 699 455 30 8 46 32 38 55 -9 22 -52 20 -63 -3z"/>
<path d="M3587 4874 c-3 -2 -116 -13 -141 -14 -11 0 -17 -3 -14 -6 9 -8 103
-15 206 -15 87 0 93 -1 80 -17 -35 -46 -50 -52 -117 -51 -58 1 -73 5 -120 36
-64 41 -63 33 2 -26 48 -44 48 -44 127 -45 l80 -1 56 58 c37 39 53 62 47 68
-8 8 -198 19 -206 13z"/>
<path d="M6978 4827 c-7 -7 -191 -58 -408 -112 l-395 -99 -228 -153 c-126 -84
-234 -153 -240 -154 -7 0 -28 -2 -47 -5 -312 -39 -354 -45 -356 -47 -1 -1 -47
-93 -103 -205 -72 -144 -108 -205 -124 -212 -12 -5 -61 -23 -109 -39 -49 -17
-125 -44 -170 -60 -46 -16 -153 -54 -238 -84 l-155 -55 -93 185 c-51 101 -90
188 -86 194 8 14 -15 39 -37 39 -10 0 -23 -9 -29 -20 -9 -17 -7 -24 13 -43 13
-12 65 -106 116 -209 51 -104 98 -188 105 -188 7 0 55 15 107 34 52 19 213 77
359 129 l265 95 98 198 c55 110 104 202 110 205 5 4 40 10 76 14 36 3 80 8 96
11 17 2 75 10 131 18 l101 14 228 152 229 153 376 95 c206 52 394 94 417 93
34 0 43 3 48 20 12 38 -29 64 -57 36z"/>
<path d="M3773 4755 c-26 -36 -55 -65 -64 -65 -18 0 -32 -15 -42 -43 -10 -26
34 -67 62 -60 27 7 44 38 37 67 -4 16 5 37 31 73 l37 50 113 -113 c62 -62 113
-117 113 -123 0 -5 -43 -95 -95 -200 -52 -105 -95 -196 -95 -204 0 -7 34 -81
75 -162 l75 -149 0 -258 c0 -250 -1 -259 -24 -310 -13 -29 -34 -75 -46 -103
-12 -27 -30 -68 -40 -90 -10 -22 -37 -83 -60 -135 -23 -52 -53 -117 -65 -145
-12 -27 -45 -102 -74 -166 l-51 -117 0 -370 c0 -212 -4 -373 -9 -376 -21 -13
2 -56 29 -56 27 0 41 30 27 57 -9 15 -12 126 -11 381 l1 360 179 403 180 404
-1 267 0 268 -75 150 -75 150 103 206 103 206 -132 134 c-73 74 -139 134 -145
134 -7 0 -34 -29 -61 -65z m-38 -116 c0 -7 -8 -15 -17 -17 -18 -3 -25 18 -11
32 10 10 28 1 28 -15z"/>
<path d="M3319 4763 c-13 -16 -12 -17 4 -4 9 7 17 15 17 17 0 8 -8 3 -21 -13z"/>
<path d="M3470 4669 c-14 -5 -30 -20 -36 -34 -12 -24 -11 -24 9 -10 25 18 68
20 84 4 9 -9 10 -6 6 10 -7 29 -32 40 -63 30z"/>
<path d="M3314 4576 c-48 -27 -66 -59 -53 -95 6 -14 32 -56 59 -93 27 -37 59
-87 71 -110 30 -58 30 -137 1 -202 -12 -27 -21 -51 -18 -53 8 -8 47 101 53
148 7 61 -13 117 -75 214 -75 115 -75 116 -50 142 36 38 50 29 104 -69 115
-210 118 -220 125 -352 5 -112 7 -107 13 29 1 22 -1 62 -5 88 -9 52 -154 363
-174 371 -6 2 -29 -6 -51 -18z"/>
<path d="M3824 4583 c-3 -10 -41 -90 -85 -179 l-79 -160 0 -188 c0 -114 -4
-195 -11 -207 -13 -26 6 -51 35 -47 17 2 21 9 19 38 -1 19 -3 116 -4 215 l-2
180 79 158 78 158 29 -29 29 -29 -75 -150 -75 -149 44 -113 c24 -62 44 -126
44 -142 0 -33 23 -48 49 -32 23 15 25 39 3 60 -18 17 -92 199 -92 226 0 7 31
76 70 153 38 76 70 144 70 150 0 17 -89 104 -106 104 -8 0 -17 -8 -20 -17z"/>
<path d="M3562 4490 c-20 -19 -21 -23 -8 -53 30 -70 40 -87 51 -87 11 0 65
101 65 124 0 14 -41 36 -69 36 -9 0 -27 -9 -39 -20z m55 -19 c13 -1 6 -38 -9
-47 -11 -7 -60 35 -53 46 4 6 13 7 62 1z"/>
<path d="M6770 4467 c-8 -8 -235 -68 -505 -135 -520 -128 -520 -128 -605 -137
-30 -3 -68 -8 -85 -10 -16 -3 -70 -9 -119 -15 -49 -6 -93 -13 -98 -16 -5 -3
-54 -96 -109 -207 l-99 -202 -193 -73 c-105 -40 -210 -79 -232 -86 -22 -8
-112 -42 -200 -75 -87 -34 -163 -61 -167 -61 -10 0 -239 460 -234 469 2 3 0
16 -5 29 -11 28 -46 27 -63 -1 -9 -15 -7 -22 11 -36 12 -10 76 -126 142 -259
66 -132 124 -242 128 -245 4 -2 195 66 423 152 l415 156 100 197 c55 108 104
200 108 204 8 9 6 8 92 18 111 14 123 15 255 32 25 3 99 19 165 36 66 16 127
31 135 33 8 2 177 44 376 94 220 55 369 88 384 84 30 -8 54 21 39 48 -11 22
-39 25 -59 6z"/>
<path d="M2046 4353 c-20 -5 -105 -50 -120 -64 -5 -4 -6 -19 -2 -32 8 -32 78
-67 148 -73 29 -3 54 -7 56 -9 5 -5 -65 -23 -112 -30 -22 -2 -43 -10 -47 -16
-14 -23 19 -104 57 -143 31 -31 141 -86 173 -86 18 0 19 -2 5 -27 -30 -59 -10
-104 64 -140 58 -28 121 -37 160 -22 21 8 23 7 17 -8 -17 -42 -16 -53 8 -77
27 -27 106 -54 182 -63 40 -4 58 -1 88 16 l37 21 0 -24 c0 -36 53 -76 100 -76
62 0 192 52 225 91 l20 23 -30 -21 c-41 -28 -128 -55 -184 -58 -51 -2 -101 24
-101 53 0 19 65 103 111 142 16 14 29 29 29 33 0 4 -10 -2 -22 -13 -94 -80
-179 -142 -211 -152 -30 -9 -48 -8 -98 6 -183 51 -177 73 54 200 59 32 107 60
107 62 0 2 -37 -13 -82 -32 -235 -101 -308 -112 -403 -63 -43 21 -50 30 -53
58 -5 54 24 75 136 101 53 12 102 26 107 32 6 6 1 8 -15 5 -14 -3 -45 -8 -70
-11 -25 -4 -58 -11 -75 -16 -87 -25 -143 -11 -233 56 -28 22 -72 89 -72 111 0
9 193 58 280 72 l55 8 -80 1 c-107 2 -305 54 -305 81 0 18 93 69 150 81 l35 8
-35 0 c-19 0 -44 -3 -54 -5z"/>
<path d="M1347 4279 c7 -7 15 -10 18 -7 3 3 -2 9 -12 12 -14 6 -15 5 -6 -5z"/>
<path d="M2095 4280 c5 -8 86 -25 113 -23 6 0 33 1 59 2 36 1 44 4 35 13 -13
13 -215 21 -207 8z"/>
<path d="M2460 4255 c0 -7 82 -42 125 -53 22 -6 67 -13 100 -16 33 -3 87 -9
119 -12 76 -7 199 -43 337 -98 60 -23 109 -41 109 -39 0 9 -268 131 -330 151
-49 15 -100 22 -210 25 -117 4 -155 9 -197 26 -29 11 -53 19 -53 16z"/>
<path d="M4995 4230 c-104 -15 -210 -30 -235 -34 -25 -3 -74 -11 -110 -16
-118 -17 -127 -18 -141 -10 -18 12 -49 -7 -49 -30 0 -29 35 -44 62 -26 13 8
48 17 78 21 30 4 62 9 70 10 8 2 38 6 65 9 47 6 229 32 285 41 14 2 48 7 75
11 28 3 58 8 68 10 9 1 17 2 17 0 0 -4 -130 -260 -134 -264 -7 -6 -569 -192
-582 -192 -16 0 -137 242 -139 277 -1 30 -23 45 -47 32 -22 -12 -24 -55 -3
-63 8 -3 46 -68 84 -145 39 -77 74 -142 79 -145 10 -6 610 191 631 208 21 16
162 308 157 323 -7 16 0 17 -231 -17z"/>
<path d="M6627 4215 c-15 -8 -60 -17 -100 -21 -40 -3 -74 -8 -77 -9 -3 -2 -37
-6 -75 -10 -39 -3 -77 -8 -85 -10 -13 -4 -147 -21 -320 -41 -25 -3 -56 -7 -70
-9 -14 -3 -52 -7 -85 -10 -33 -4 -71 -8 -85 -11 -14 -2 -50 -6 -80 -9 -30 -3
-64 -7 -75 -10 -11 -2 -47 -7 -80 -10 -33 -4 -67 -8 -75 -11 -8 -2 -61 -95
-117 -207 l-101 -203 -449 -176 -448 -175 -68 135 c-38 74 -66 136 -63 139 3
3 1 14 -5 24 -13 25 -46 24 -60 -2 -9 -18 -7 -25 13 -44 14 -13 54 -82 89
-154 35 -72 69 -133 75 -135 6 -2 81 22 165 55 85 33 253 98 374 145 121 47
261 101 310 120 l90 35 103 204 102 203 37 6 c49 7 76 11 328 41 116 14 217
28 225 30 8 2 46 7 85 10 38 4 72 8 75 10 3 1 37 6 75 9 39 4 81 9 95 11 14 2
50 7 80 10 30 3 66 8 80 11 51 10 105 12 115 5 36 -26 76 29 42 57 -9 8 -21 7
-40 -3z"/>
<path d="M4825 4094 c-126 -36 -242 -63 -256 -62 -26 2 -59 -16 -59 -33 0 -10
29 -39 40 -39 5 0 15 6 23 14 13 13 141 53 355 110 50 13 92 23 92 21 0 -2 -5
-15 -11 -28 -10 -21 -42 -34 -255 -97 -134 -40 -246 -71 -248 -69 -15 17 -71
141 -75 169 -6 31 -10 35 -36 35 -39 0 -45 -30 -13 -60 12 -12 41 -58 63 -103
27 -58 44 -82 57 -82 26 0 509 147 520 158 5 5 20 32 33 60 18 38 21 53 12 60
-8 6 -94 -13 -242 -54z"/>
<path d="M6465 4088 c-11 -7 -27 -13 -35 -15 -20 -3 -118 -15 -150 -18 -14 -1
-43 -5 -65 -9 -22 -3 -62 -8 -90 -11 -27 -3 -61 -7 -75 -10 -14 -2 -50 -7 -80
-10 -30 -3 -71 -7 -90 -10 -19 -2 -57 -7 -85 -10 -27 -3 -81 -10 -120 -15 -38
-5 -90 -12 -115 -15 -110 -13 -98 -1 -183 -173 -42 -86 -77 -160 -77 -165 0
-4 32 -71 71 -149 38 -77 68 -147 65 -154 -3 -7 5 -20 17 -29 20 -14 23 -14
40 6 16 21 16 22 -10 53 -16 18 -55 87 -87 153 l-59 121 72 146 c41 80 79 146
87 146 7 0 84 9 171 20 87 12 178 23 203 26 25 2 56 7 70 9 14 3 52 7 85 10
33 3 71 8 85 10 14 3 48 7 75 11 62 7 88 10 145 20 25 4 76 7 114 8 52 1 71 5
79 18 8 12 7 21 -2 32 -16 19 -29 20 -56 4z"/>
<path d="M2285 4070 l-70 -19 110 4 c61 2 133 11 160 19 l50 14 -90 0 c-57 0
-116 -7 -160 -18z"/>
<path d="M1548 4013 c7 -3 16 -2 19 1 4 3 -2 6 -13 5 -11 0 -14 -3 -6 -6z"/>
<path d="M3532 3960 c0 -14 2 -19 5 -12 2 6 2 18 0 25 -3 6 -5 1 -5 -13z"/>
<path d="M6312 3958 c-6 -6 -24 -12 -39 -14 -64 -6 -144 -16 -238 -29 -55 -7
-125 -16 -155 -19 -30 -3 -125 -15 -210 -26 -85 -11 -156 -20 -157 -20 -4 0
-113 -218 -113 -225 0 -3 42 -47 94 -99 52 -51 96 -102 98 -112 4 -24 41 -30
57 -10 17 20 7 44 -22 55 -13 5 -60 46 -105 91 l-81 83 47 91 47 91 46 6 c25
4 72 10 105 13 32 3 70 8 84 10 14 3 52 7 85 11 33 3 67 8 75 10 8 2 46 7 85
10 38 4 72 8 75 10 10 6 146 18 208 19 68 1 89 15 71 48 -11 20 -39 24 -57 6z"/>
<path d="M2564 3915 c-58 -12 -206 -81 -154 -71 14 2 43 8 65 12 43 8 190 72
165 72 -8 0 -42 -6 -76 -13z"/>
<path d="M3793 3798 l-133 -52 0 -507 c0 -328 -4 -510 -10 -514 -14 -9 -12
-21 6 -39 19 -20 29 -20 48 0 13 12 14 20 4 37 -8 15 -11 152 -10 477 0 250 1
469 1 486 1 31 5 33 104 73 56 23 105 41 108 41 3 0 5 -98 4 -217 l-1 -218
-68 -155 c-37 -85 -74 -159 -82 -163 -19 -11 -18 -56 2 -64 25 -9 49 11 51 43
1 16 32 99 69 184 l67 155 2 230 c1 207 -4 256 -24 255 -3 -1 -66 -24 -138
-52z"/>
<path d="M6166 3831 c-4 -5 -32 -13 -64 -16 -31 -4 -68 -8 -82 -10 -14 -2 -50
-6 -80 -10 -30 -4 -66 -8 -80 -10 -25 -4 -141 -19 -232 -30 -26 -3 -53 -8 -60
-10 -18 -7 -69 -118 -59 -128 5 -5 64 -22 132 -39 68 -17 135 -39 148 -49 17
-14 28 -16 42 -8 37 19 16 70 -26 63 -18 -3 -241 49 -250 58 -3 2 3 20 13 38
13 27 24 35 47 37 17 1 48 5 70 8 44 6 237 31 325 41 30 3 76 10 101 13 26 4
52 3 61 -3 22 -13 50 10 46 38 -3 22 -41 35 -52 17z"/>
<path d="M3257 3823 c-16 -26 -25 -379 -11 -439 8 -34 96 -236 101 -231 1 2
-18 55 -43 117 l-46 114 6 180 c3 100 9 193 12 207 l6 27 69 -18 c97 -25 159
-63 160 -98 0 -15 3 -36 5 -47 3 -11 7 -177 8 -368 2 -191 5 -350 8 -352 5 -5
4 -18 13 410 8 392 6 405 -61 442 -57 32 -218 71 -227 56z"/>
<path d="M2764 3782 c-41 -27 -123 -112 -109 -112 20 0 105 64 134 100 37 46
32 49 -25 12z"/>
<path d="M3007 3742 c-18 -19 -37 -66 -37 -89 0 -9 12 -1 30 22 17 21 30 41
30 46 0 4 3 14 6 23 8 21 -9 20 -29 -2z"/>
<path d="M5230 3560 c-31 -31 -24 -62 20 -85 32 -16 103 -153 98 -188 -4 -27
26 -46 50 -31 16 11 18 43 3 54 -4 3 -25 37 -46 75 -26 49 -39 85 -41 120 -4
71 -43 96 -84 55z m49 -46 c-9 -11 -15 -12 -25 -3 -11 9 -12 15 -3 25 9 11 15
12 25 3 11 -9 12 -15 3 -25z"/>
<path d="M2210 3448 c-51 -108 -106 -184 -173 -238 -34 -27 -62 -48 -64 -47
-9 9 -13 160 -5 194 5 24 6 41 2 38 -15 -9 -30 -122 -24 -195 2 -41 7 -76 9
-78 2 -2 25 6 51 19 56 28 122 100 159 172 19 36 25 43 20 22 -9 -37 -16 -331
-8 -351 9 -25 32 -16 85 34 54 50 117 137 141 193 l15 34 -5 -41 c-7 -56 20
-154 68 -251 44 -88 59 -101 85 -75 21 20 74 131 74 154 0 34 19 28 30 -9 15
-53 81 -174 103 -187 29 -18 55 26 94 164 3 8 17 -23 32 -70 66 -201 85 -192
145 74 l7 28 28 -43 c37 -57 76 -93 95 -86 29 11 54 141 41 222 -3 25 -11 45
-16 45 -6 0 -7 -5 -4 -11 10 -16 7 -103 -4 -146 -20 -69 -25 -71 -66 -27 -52
57 -57 73 -69 242 -3 48 -12 65 -13 24 -1 -68 -13 -191 -22 -234 -16 -70 -51
-159 -61 -153 -15 9 -68 158 -75 210 -3 28 -7 82 -7 120 l-1 70 -7 -51 c-4
-28 -11 -80 -14 -115 -8 -73 -26 -141 -51 -189 l-17 -33 -19 24 c-11 13 -38
61 -60 106 -39 79 -41 87 -40 170 1 49 3 105 4 125 5 78 -14 17 -23 -73 -5
-52 -16 -121 -25 -153 -16 -62 -62 -156 -76 -156 -11 0 -72 105 -95 165 -24
64 -23 193 4 287 11 37 16 65 12 63 -5 -3 -18 -38 -30 -77 -32 -108 -77 -184
-156 -267 -83 -86 -80 -88 -89 60 -7 101 13 261 41 328 26 63 8 41 -26 -31z"/>
<path d="M4974 3446 c-16 -13 -17 -18 -6 -33 16 -23 14 -18 63 -155 26 -72 48
-118 56 -118 7 0 46 11 85 25 40 14 79 23 89 20 22 -7 42 19 34 45 -7 23 -49
28 -62 6 -7 -12 -132 -61 -138 -54 -12 15 -69 208 -67 226 3 23 -13 52 -27 52
-4 0 -16 -6 -27 -14z"/>
<path d="M4876 3392 c-9 -11 -35 -25 -59 -31 -52 -16 -90 -39 -82 -51 3 -5 21
-62 40 -127 19 -64 39 -121 45 -127 6 -6 29 -4 67 9 32 10 71 19 87 19 36 1
55 28 37 50 -16 20 -47 21 -58 3 -6 -11 -92 -47 -109 -47 -8 0 -24 82 -18 91
3 6 19 8 35 5 34 -7 60 15 52 44 -6 24 -45 27 -63 5 -23 -28 -46 -18 -59 26
-7 23 -11 42 -9 44 17 14 61 29 102 34 39 5 52 10 54 25 3 11 -4 26 -14 33
-23 17 -28 17 -48 -5z"/>
<path d="M4121 3371 c-6 -10 -29 -61 -51 -112 -46 -106 -45 -108 33 -131 47
-14 53 -25 34 -70 -10 -24 -42 -55 -101 -99 -48 -35 -88 -62 -89 -60 -1 2 -12
-1 -24 -8 -27 -14 -30 -47 -5 -60 20 -11 52 3 52 22 0 7 43 43 94 81 83 61 98
77 122 129 31 67 31 67 -53 94 -29 9 -53 20 -53 25 0 5 14 39 31 76 l31 67 18
-40 c10 -22 23 -52 29 -67 9 -23 14 -26 33 -19 29 10 35 45 10 63 -10 7 -33
39 -51 71 -35 61 -45 68 -60 38z"/>
<path d="M4570 3269 c-41 -17 -79 -34 -84 -39 -5 -5 1 -61 14 -128 12 -66 19
-129 16 -139 -7 -23 4 -40 28 -45 31 -5 42 25 24 64 -14 30 -27 83 -43 189 -6
35 -5 37 44 58 66 28 71 27 71 -12 0 -24 -8 -41 -30 -62 -36 -34 -30 -51 34
-91 25 -16 49 -39 55 -51 6 -13 16 -23 23 -23 46 1 51 59 7 71 -15 3 -43 18
-63 31 l-36 25 26 28 c23 25 25 34 20 82 -6 56 -12 73 -24 72 -4 0 -41 -14
-82 -30z"/>
<path d="M4267 3193 c-4 -3 -7 -16 -7 -28 0 -13 -32 -87 -71 -165 -38 -79 -66
-147 -62 -151 10 -10 312 38 330 52 8 7 7 25 -3 72 -21 88 -27 126 -28 177 -1
41 -3 45 -28 48 -33 4 -46 -27 -25 -60 16 -26 51 -194 43 -207 -5 -8 -44 -16
-131 -27 -22 -3 -55 -9 -72 -14 -20 -5 -33 -5 -33 1 0 20 113 233 132 249 27
21 17 60 -16 60 -12 0 -26 -3 -29 -7z"/>
<path d="M3350 3131 c0 -6 4 -13 10 -16 6 -3 7 1 4 9 -7 18 -14 21 -14 7z"/>
<path d="M3522 2875 c0 -16 2 -22 5 -12 2 9 2 23 0 30 -3 6 -5 -1 -5 -18z"/>
<path d="M3521 2824 c0 -11 3 -14 6 -6 3 7 2 16 -1 19 -3 4 -6 -2 -5 -13z"/>
<path d="M3867 2788 c-9 -5 -17 -21 -17 -36 -1 -15 -7 -38 -15 -52 -8 -14 -14
-32 -15 -41 0 -8 63 -78 139 -154 77 -77 142 -149 145 -161 6 -22 31 -34 54
-27 21 8 14 53 -10 62 -13 5 -83 70 -157 144 -145 146 -147 152 -94 201 38 36
14 89 -30 64z"/>
<path d="M3761 2173 c-1 -219 -4 -413 -7 -430 -5 -26 -2 -34 11 -39 31 -12 71
35 44 51 -5 3 -9 172 -9 377 l0 372 32 -30 c105 -98 265 -265 276 -288 18 -39
57 -33 57 9 0 21 -5 31 -18 33 -10 2 -94 80 -187 173 -93 93 -175 169 -183
169 -13 0 -15 -54 -16 -397z"/>
<path d="M3314 2423 c-60 -68 -61 -71 -108 -158 l-37 -70 41 45 c22 25 51 59
64 75 25 32 100 165 93 165 -2 0 -26 -25 -53 -57z"/>
<path d="M3874 2306 c-4 -11 -7 -87 -8 -171 l0 -151 46 -89 c24 -50 43 -96 40
-103 -6 -17 17 -42 39 -42 28 0 34 38 11 63 -11 12 -38 59 -61 104 l-41 83 0
127 0 128 84 -84 84 -84 -19 -54 c-10 -29 -25 -60 -34 -69 -19 -19 -19 -29 1
-48 12 -12 20 -13 35 -6 19 11 23 20 20 51 -1 10 7 43 18 75 l21 58 -115 115
c-96 98 -115 113 -121 97z"/>
<path d="M3378 2232 c-32 -66 -73 -192 -63 -192 2 0 18 28 37 63 31 57 76 192
66 202 -2 2 -20 -31 -40 -73z"/>
<path d="M3492 2140 c0 -14 2 -19 5 -12 2 6 2 18 0 25 -3 6 -5 1 -5 -13z"/>
<path d="M3525 2110 c-3 -5 -1 -10 4 -10 6 0 11 5 11 10 0 6 -2 10 -4 10 -3 0
-8 -4 -11 -10z"/>
<path d="M3525 2081 c-3 -5 -2 -12 3 -15 5 -3 9 1 9 9 0 17 -3 19 -12 6z"/>
<path d="M3407 2003 c-18 -36 -35 -133 -24 -133 12 0 40 74 47 123 3 26 4 47
1 47 -3 0 -14 -17 -24 -37z"/>
</g>
</svg>
